# Blender v3.2.1 OBJ File: ''
# www.blender.org
mtllib arrow.mtl
o Plane
v -3.700000 3.700000 1.268133
v -4.000000 4.000000 1.268133
v -4.000000 -4.000000 1.268128
v -3.700000 -3.700000 1.268128
v 3.700000 3.700000 1.268133
v 4.000000 4.000000 1.268133
v 4.000000 -4.000000 1.268128
v 3.700000 -3.700000 1.268128
v -3.700000 3.700000 1.675745
v -3.700000 -3.700000 1.675740
v -4.000000 -4.000000 1.675740
v -4.000000 4.000000 1.675745
v 3.700000 3.700000 1.675745
v 4.000000 4.000000 1.675745
v 3.700000 -3.700000 1.675740
v 4.000000 -4.000000 1.675740
v 0.000000 0.840001 -1.170635
v 0.000000 0.839999 2.189365
v 0.163876 0.823859 2.189365
v 0.163876 0.823861 -1.170635
v 0.321454 0.776058 2.189365
v 0.321454 0.776060 -1.170635
v 0.466679 0.698433 2.189365
v 0.466679 0.698435 -1.170635
v 0.593970 0.593969 2.189365
v 0.593970 0.593971 -1.170635
v 0.698434 0.466678 2.189365
v 0.698434 0.466680 -1.170635
v 0.776059 0.321453 2.189365
v 0.776059 0.321455 -1.170635
v 0.823860 0.163875 2.189365
v 0.823860 0.163877 -1.170635
v 0.840000 -0.000001 2.189365
v 0.840000 0.000001 -1.170635
v 0.823860 -0.163877 2.189365
v 0.823860 -0.163875 -1.170636
v 0.776059 -0.321455 2.189364
v 0.776059 -0.321453 -1.170636
v 0.698435 -0.466681 2.189364
v 0.698435 -0.466678 -1.170636
v 0.593970 -0.593971 2.189364
v 0.593970 -0.593969 -1.170636
v 0.466679 -0.698436 2.189364
v 0.466679 -0.698434 -1.170636
v 0.321454 -0.776060 2.189364
v 0.321454 -0.776058 -1.170636
v 0.163876 -0.823861 2.189364
v 0.163876 -0.823859 -1.170636
v 0.000000 -0.840001 2.189364
v 0.000000 -0.839999 -1.170636
v -0.163876 -0.823861 2.189364
v -0.163876 -0.823859 -1.170636
v -0.321454 -0.776060 2.189364
v -0.321454 -0.776058 -1.170636
v -0.466679 -0.698435 2.189364
v -0.466679 -0.698433 -1.170636
v -0.593970 -0.593971 2.189364
v -0.593970 -0.593969 -1.170636
v -0.698434 -0.466681 2.189364
v -0.698434 -0.466678 -1.170636
v -0.776059 -0.321455 2.189364
v -0.776059 -0.321453 -1.170636
v -0.823860 -0.163877 2.189365
v -0.823860 -0.163875 -1.170636
v -0.840000 -0.000001 2.189365
v -0.840000 0.000001 -1.170635
v -0.823860 0.163875 2.189365
v -0.823860 0.163877 -1.170635
v -0.776059 0.321453 2.189365
v -0.776059 0.321455 -1.170635
v -0.698435 0.466678 2.189365
v -0.698435 0.466680 -1.170635
v -0.593970 0.593969 2.189365
v -0.593970 0.593971 -1.170635
v -0.466679 0.698433 2.189365
v -0.466679 0.698435 -1.170635
v -0.321454 0.776058 2.189365
v -0.321454 0.776060 -1.170635
v -0.163876 0.823859 2.189365
v -0.163876 0.823861 -1.170635
v -1.247337 1.247337 -1.170635
v -1.466713 0.980027 -1.170635
v 0.980026 -1.466712 -1.170636
v 0.675054 -1.629722 -1.170636
v 0.000000 0.000002 -3.690635
v 1.629723 0.675055 -1.170635
v 1.466712 0.980027 -1.170635
v 0.344139 -1.730104 -1.170636
v -1.764000 0.000001 -1.170635
v -1.730105 -0.344138 -1.170636
v 0.675054 1.629724 -1.170635
v 0.344139 1.730106 -1.170635
v 1.466713 -0.980025 -1.170636
v 1.629724 -0.675053 -1.170636
v -1.247336 -1.247336 -1.170636
v -0.980026 -1.466711 -1.170636
v -0.980026 1.466713 -1.170635
v 1.730105 0.344140 -1.170635
v 0.000000 -1.763999 -1.170636
v -1.730105 0.344141 -1.170635
v 0.980026 1.466713 -1.170635
v 1.247336 -1.247335 -1.170636
v -1.466712 -0.980025 -1.170636
v -0.675054 1.629725 -1.170635
v 1.764000 0.000001 -1.170635
v -0.344139 -1.730104 -1.170636
v -1.629723 0.675055 -1.170635
v 1.247336 1.247337 -1.170635
v -1.629723 -0.675053 -1.170636
v -0.344139 1.730106 -1.170635
v 1.730105 -0.344138 -1.170636
v -0.675054 -1.629722 -1.170636
v 0.000000 1.764001 -1.170635
vt 0.000000 1.000000
vt 0.000000 1.000000
vt 0.000000 0.000000
vt 0.000000 0.000000
vt 1.000000 1.000000
vt 1.000000 1.000000
vt 1.000000 0.000000
vt 1.000000 0.000000
vt 0.000000 1.000000
vt 0.000000 0.000000
vt 0.000000 0.000000
vt 0.000000 1.000000
vt 1.000000 1.000000
vt 1.000000 1.000000
vt 1.000000 0.000000
vt 1.000000 0.000000
vt 1.000000 0.500000
vt 1.000000 1.000000
vt 0.968750 1.000000
vt 0.968750 0.500000
vt 0.937500 1.000000
vt 0.937500 0.500000
vt 0.906250 1.000000
vt 0.906250 0.500000
vt 0.875000 1.000000
vt 0.875000 0.500000
vt 0.843750 1.000000
vt 0.843750 0.500000
vt 0.812500 1.000000
vt 0.812500 0.500000
vt 0.781250 1.000000
vt 0.781250 0.500000
vt 0.750000 1.000000
vt 0.750000 0.500000
vt 0.718750 1.000000
vt 0.718750 0.500000
vt 0.687500 1.000000
vt 0.687500 0.500000
vt 0.656250 1.000000
vt 0.656250 0.500000
vt 0.625000 1.000000
vt 0.625000 0.500000
vt 0.593750 1.000000
vt 0.593750 0.500000
vt 0.562500 1.000000
vt 0.562500 0.500000
vt 0.531250 1.000000
vt 0.531250 0.500000
vt 0.500000 1.000000
vt 0.500000 0.500000
vt 0.468750 1.000000
vt 0.468750 0.500000
vt 0.437500 1.000000
vt 0.437500 0.500000
vt 0.406250 1.000000
vt 0.406250 0.500000
vt 0.375000 1.000000
vt 0.375000 0.500000
vt 0.343750 1.000000
vt 0.343750 0.500000
vt 0.312500 1.000000
vt 0.312500 0.500000
vt 0.281250 1.000000
vt 0.281250 0.500000
vt 0.250000 1.000000
vt 0.250000 0.500000
vt 0.218750 1.000000
vt 0.218750 0.500000
vt 0.187500 1.000000
vt 0.187500 0.500000
vt 0.156250 1.000000
vt 0.156250 0.500000
vt 0.125000 1.000000
vt 0.125000 0.500000
vt 0.093750 1.000000
vt 0.093750 0.500000
vt 0.062500 1.000000
vt 0.062500 0.500000
vt 0.296822 0.485388
vt 0.250000 0.490000
vt 0.203178 0.485388
vt 0.158156 0.471731
vt 0.116663 0.449553
vt 0.080294 0.419706
vt 0.050447 0.383337
vt 0.028269 0.341844
vt 0.014612 0.296822
vt 0.010000 0.250000
vt 0.014612 0.203178
vt 0.028269 0.158156
vt 0.050447 0.116663
vt 0.080294 0.080294
vt 0.116663 0.050447
vt 0.158156 0.028269
vt 0.203178 0.014612
vt 0.250000 0.010000
vt 0.296822 0.014612
vt 0.341844 0.028269
vt 0.383337 0.050447
vt 0.419706 0.080294
vt 0.449553 0.116663
vt 0.471731 0.158156
vt 0.485388 0.203178
vt 0.490000 0.250000
vt 0.485388 0.296822
vt 0.471731 0.341844
vt 0.449553 0.383337
vt 0.419706 0.419706
vt 0.383337 0.449553
vt 0.341844 0.471731
vt 0.031250 1.000000
vt 0.031250 0.500000
vt 0.000000 1.000000
vt 0.000000 0.500000
vt 0.125000 0.500000
vt 0.156250 0.500000
vt 0.593750 0.500000
vt 0.562500 0.500000
vt 0.593750 0.500000
vt 0.812500 0.500000
vt 0.843750 0.500000
vt 0.531250 0.500000
vt 0.250000 0.500000
vt 0.281250 0.500000
vt 0.937500 0.500000
vt 0.968750 0.500000
vt 0.656250 0.500000
vt 0.687500 0.500000
vt 0.375000 0.500000
vt 0.406250 0.500000
vt 0.093750 0.500000
vt 0.781250 0.500000
vt 0.500000 0.500000
vt 0.218750 0.500000
vt 0.906250 0.500000
vt 0.625000 0.500000
vt 0.343750 0.500000
vt 0.062500 0.500000
vt 0.750000 0.500000
vt 0.468750 0.500000
vt 0.187500 0.500000
vt 0.875000 0.500000
vt 0.312500 0.500000
vt 0.031250 0.500000
vt 0.718750 0.500000
vt 0.437500 0.500000
vt 1.000000 0.500000
vt 0.000000 0.500000
vt 1.000000 0.500000
vt 0.156250 0.500000
vt 0.562500 0.500000
vt 0.968750 0.500000
vt 0.125000 0.500000
vt 0.531250 0.500000
vt 0.937500 0.500000
vt 0.093750 0.500000
vt 0.500000 0.500000
vt 0.906250 0.500000
vt 0.062500 0.500000
vt 0.468750 0.500000
vt 0.875000 0.500000
vt 0.031250 0.500000
vt 0.437500 0.500000
vt 0.843750 0.500000
vt 0.406250 0.500000
vt 0.812500 0.500000
vt 0.375000 0.500000
vt 0.781250 0.500000
vt 0.343750 0.500000
vt 0.750000 0.500000
vt 0.312500 0.500000
vt 0.718750 0.500000
vt 0.281250 0.500000
vt 0.687500 0.500000
vt 0.250000 0.500000
vt 0.656250 0.500000
vt 0.218750 0.500000
vt 0.625000 0.500000
vt 0.187500 0.500000
vn -0.0000 -0.0000 1.0000
vn 0.0000 0.0000 -1.0000
vn 0.0000 1.0000 0.0000
vn 0.0000 -1.0000 0.0000
vn -1.0000 0.0000 0.0000
vn 1.0000 0.0000 0.0000
vn 0.0980 0.9952 0.0000
vn 0.2903 0.9569 0.0000
vn 0.4714 0.8819 0.0000
vn 0.6344 0.7730 0.0000
vn 0.7730 0.6344 0.0000
vn 0.8819 0.4714 0.0000
vn 0.9569 0.2903 0.0000
vn 0.9952 0.0980 0.0000
vn 0.9952 -0.0980 -0.0000
vn 0.9569 -0.2903 -0.0000
vn 0.8819 -0.4714 -0.0000
vn 0.7730 -0.6344 -0.0000
vn 0.6344 -0.7730 -0.0000
vn 0.4714 -0.8819 -0.0000
vn 0.2903 -0.9569 -0.0000
vn 0.0980 -0.9952 -0.0000
vn -0.0980 -0.9952 -0.0000
vn -0.2903 -0.9569 -0.0000
vn -0.4714 -0.8819 -0.0000
vn -0.6344 -0.7730 -0.0000
vn -0.7730 -0.6344 -0.0000
vn -0.8819 -0.4714 -0.0000
vn -0.9569 -0.2903 -0.0000
vn -0.9952 -0.0980 -0.0000
vn -0.9952 0.0980 0.0000
vn -0.9569 0.2903 0.0000
vn -0.8819 0.4714 0.0000
vn -0.7730 0.6344 0.0000
vn -0.6344 0.7730 0.0000
vn -0.4714 0.8819 0.0000
vn -0.2903 0.9569 0.0000
vn -0.0980 0.9952 0.0000
vn 0.3868 -0.7236 -0.5716
vn 0.0804 0.8166 -0.5716
vn -0.6343 0.5205 -0.5716
vn 0.2382 -0.7852 -0.5716
vn 0.2382 0.7852 -0.5716
vn -0.5205 0.6343 -0.5716
vn 0.0804 -0.8166 -0.5716
vn 0.3868 0.7236 -0.5716
vn -0.3868 0.7236 -0.5716
vn -0.0804 -0.8166 -0.5716
vn 0.5205 0.6343 -0.5716
vn -0.2382 0.7852 -0.5716
vn -0.2382 -0.7852 -0.5716
vn 0.6343 0.5205 -0.5716
vn -0.0804 0.8166 -0.5716
vn -0.3868 -0.7236 -0.5716
vn 0.7236 0.3868 -0.5716
vn -0.5205 -0.6343 -0.5716
vn 0.7852 0.2382 -0.5716
vn -0.6343 -0.5205 -0.5716
vn 0.8166 0.0804 -0.5716
vn -0.7236 -0.3868 -0.5716
vn 0.8166 -0.0804 -0.5716
vn -0.7852 -0.2382 -0.5716
vn 0.7852 -0.2382 -0.5716
vn -0.8166 -0.0804 -0.5716
vn 0.7236 -0.3868 -0.5716
vn -0.8166 0.0804 -0.5716
vn 0.6343 -0.5205 -0.5716
vn -0.7852 0.2382 -0.5716
vn 0.5205 -0.6343 -0.5716
vn -0.7236 0.3868 -0.5716
usemtl Default_OBJ
s 1
f 1/1/1 2/2/1 3/3/1 4/4/1
f 5/5/1 6/6/1 2/2/1 1/1/1
f 4/4/1 3/3/1 7/7/1 8/8/1
f 8/8/1 7/7/1 6/6/1 5/5/1
f 9/9/2 10/10/2 11/11/2 12/12/2
f 13/13/2 9/9/2 12/12/2 14/14/2
f 10/10/2 15/15/2 16/16/2 11/11/2
f 15/15/2 13/13/2 14/14/2 16/16/2
f 5/5/3 1/1/3 9/9/3 13/13/3
f 4/4/4 8/8/4 15/15/4 10/10/4
f 6/6/5 7/7/5 16/16/5 14/14/5
f 3/3/6 2/2/6 12/12/6 11/11/6
f 8/8/6 5/5/6 13/13/6 15/15/6
f 1/1/5 4/4/5 10/10/5 9/9/5
f 2/2/4 6/6/4 14/14/4 12/12/4
f 7/7/3 3/3/3 11/11/3 16/16/3
f 17/17/7 18/18/7 19/19/7 20/20/7
f 20/20/8 19/19/8 21/21/8 22/22/8
f 22/22/9 21/21/9 23/23/9 24/24/9
f 24/24/10 23/23/10 25/25/10 26/26/10
f 26/26/11 25/25/11 27/27/11 28/28/11
f 28/28/12 27/27/12 29/29/12 30/30/12
f 30/30/13 29/29/13 31/31/13 32/32/13
f 32/32/14 31/31/14 33/33/14 34/34/14
f 34/34/15 33/33/15 35/35/15 36/36/15
f 36/36/16 35/35/16 37/37/16 38/38/16
f 38/38/17 37/37/17 39/39/17 40/40/17
f 40/40/18 39/39/18 41/41/18 42/42/18
f 42/42/19 41/41/19 43/43/19 44/44/19
f 44/44/20 43/43/20 45/45/20 46/46/20
f 46/46/21 45/45/21 47/47/21 48/48/21
f 48/48/22 47/47/22 49/49/22 50/50/22
f 50/50/23 49/49/23 51/51/23 52/52/23
f 52/52/24 51/51/24 53/53/24 54/54/24
f 54/54/25 53/53/25 55/55/25 56/56/25
f 56/56/26 55/55/26 57/57/26 58/58/26
f 58/58/27 57/57/27 59/59/27 60/60/27
f 60/60/28 59/59/28 61/61/28 62/62/28
f 62/62/29 61/61/29 63/63/29 64/64/29
f 64/64/30 63/63/30 65/65/30 66/66/30
f 66/66/31 65/65/31 67/67/31 68/68/31
f 68/68/32 67/67/32 69/69/32 70/70/32
f 70/70/33 69/69/33 71/71/33 72/72/33
f 72/72/34 71/71/34 73/73/34 74/74/34
f 74/74/35 73/73/35 75/75/35 76/76/35
f 76/76/36 75/75/36 77/77/36 78/78/36
f 19/79/1 18/80/1 79/81/1 77/82/1 75/83/1 73/84/1 71/85/1 69/86/1 67/87/1 65/88/1 63/89/1 61/90/1 59/91/1 57/92/1 55/93/1 53/94/1 51/95/1 49/96/1 47/97/1 45/98/1 43/99/1 41/100/1 39/101/1 37/102/1 35/103/1 33/104/1 31/105/1 29/106/1 27/107/1 25/108/1 23/109/1 21/110/1
f 78/78/37 77/77/37 79/111/37 80/112/37
f 80/112/38 79/111/38 18/113/38 17/114/38
f 72/72/1 74/74/1 81/115/1 82/116/1
f 83/117/39 84/118/39 85/119/39
f 28/28/1 30/30/1 86/120/1 87/121/1
f 46/46/1 48/48/1 88/122/1 84/118/1
f 64/64/1 66/66/1 89/123/1 90/124/1
f 20/20/1 22/22/1 91/125/1 92/126/1
f 38/38/1 40/40/1 93/127/1 94/128/1
f 56/56/1 58/58/1 95/129/1 96/130/1
f 74/74/1 76/76/1 97/131/1 81/115/1
f 30/30/1 32/32/1 98/132/1 86/120/1
f 48/48/1 50/50/1 99/133/1 88/122/1
f 66/66/1 68/68/1 100/134/1 89/123/1
f 22/22/1 24/24/1 101/135/1 91/125/1
f 40/40/1 42/42/1 102/136/1 93/127/1
f 58/58/1 60/60/1 103/137/1 95/129/1
f 76/76/1 78/78/1 104/138/1 97/131/1
f 32/32/1 34/34/1 105/139/1 98/132/1
f 50/50/1 52/52/1 106/140/1 99/133/1
f 68/68/1 70/70/1 107/141/1 100/134/1
f 24/24/1 26/26/1 108/142/1 101/135/1
f 42/42/1 44/44/1 83/117/1 102/136/1
f 60/60/1 62/62/1 109/143/1 103/137/1
f 78/78/1 80/112/1 110/144/1 104/138/1
f 34/34/1 36/36/1 111/145/1 105/139/1
f 52/52/1 54/54/1 112/146/1 106/140/1
f 70/70/1 72/72/1 82/116/1 107/141/1
f 26/26/1 28/28/1 87/121/1 108/142/1
f 44/44/1 46/46/1 84/118/1 83/117/1
f 62/62/1 64/64/1 90/124/1 109/143/1
f 17/17/1 20/20/1 92/126/1 113/147/1
f 80/112/1 17/114/1 113/148/1 110/144/1
f 36/36/1 38/38/1 94/128/1 111/145/1
f 54/54/1 56/56/1 96/130/1 112/146/1
f 113/147/40 92/126/40 85/149/40
f 82/116/41 81/115/41 85/150/41
f 84/118/42 88/122/42 85/151/42
f 92/126/43 91/125/43 85/152/43
f 81/115/44 97/131/44 85/153/44
f 88/122/45 99/133/45 85/154/45
f 91/125/46 101/135/46 85/155/46
f 97/131/47 104/138/47 85/156/47
f 99/133/48 106/140/48 85/157/48
f 101/135/49 108/142/49 85/158/49
f 104/138/50 110/144/50 85/159/50
f 106/140/51 112/146/51 85/160/51
f 108/142/52 87/121/52 85/161/52
f 110/144/53 113/148/53 85/162/53
f 112/146/54 96/130/54 85/163/54
f 87/121/55 86/120/55 85/164/55
f 96/130/56 95/129/56 85/165/56
f 86/120/57 98/132/57 85/166/57
f 95/129/58 103/137/58 85/167/58
f 98/132/59 105/139/59 85/168/59
f 103/137/60 109/143/60 85/169/60
f 105/139/61 111/145/61 85/170/61
f 109/143/62 90/124/62 85/171/62
f 111/145/63 94/128/63 85/172/63
f 90/124/64 89/123/64 85/173/64
f 94/128/65 93/127/65 85/174/65
f 89/123/66 100/134/66 85/175/66
f 93/127/67 102/136/67 85/176/67
f 100/134/68 107/141/68 85/177/68
f 102/136/69 83/117/69 85/178/69
f 107/141/70 82/116/70 85/179/70
o Cube_Cube.001
v -5.000000 -4.499999 -4.500001
v -5.000000 -4.499999 -5.000001
v -5.000000 -4.999999 -5.000001
v -5.000000 -4.999999 -4.500001
v 4.500000 -4.999999 -4.500001
v 4.500000 -4.999999 -5.000001
v 5.000000 -4.999999 -5.000001
v 5.000000 -4.999999 -4.500001
v 5.000000 4.500001 -4.499999
v 5.000000 4.500001 -4.999999
v 5.000000 5.000001 -4.999999
v 5.000000 5.000001 -4.499999
v -4.500000 5.000001 -4.499999
v -4.500000 5.000001 -4.999999
v -5.000000 5.000001 -4.999999
v -5.000000 5.000001 -4.499999
v 4.500000 4.499999 5.000001
v 5.000000 4.499999 5.000001
v 5.000000 4.999999 5.000001
v 4.500000 4.999999 5.000001
v -4.500000 4.500001 -4.999999
v -5.000000 4.500001 -4.999999
v 4.500000 4.500001 -4.999999
v 0.000000 4.500001 -4.999999
v 0.000000 5.000001 -4.999999
v 4.500000 5.000001 -4.999999
v -4.500000 -4.499999 -5.000001
v -5.000000 0.000001 -5.000000
v -4.500000 0.000001 -5.000000
v -4.500000 4.499999 5.000001
v 0.000000 4.499999 5.000001
v 0.000000 4.999999 5.000001
v -4.500000 4.999999 5.000001
v 4.500000 -4.500001 4.999999
v 5.000000 -4.500001 4.999999
v 5.000000 -0.000001 5.000000
v 4.500000 -0.000001 5.000000
v -4.500000 4.999999 4.500001
v -4.500000 5.000000 0.000001
v -5.000000 5.000000 0.000001
v -5.000000 4.999999 4.500001
v 4.500000 5.000001 -4.499999
v 0.000000 5.000001 -4.499999
v 5.000000 4.499999 4.500001
v 5.000000 4.500000 0.000001
v 5.000000 5.000000 0.000001
v 5.000000 4.999999 4.500001
v 5.000000 -4.499999 -4.500001
v 5.000000 -4.499999 -5.000001
v 5.000000 0.000001 -5.000000
v 5.000000 0.000001 -4.500000
v 4.500000 -5.000001 4.499999
v 4.500000 -5.000000 -0.000001
v 5.000000 -5.000000 -0.000001
v 5.000000 -5.000001 4.499999
v -4.500000 -4.999999 -4.500001
v -4.500000 -4.999999 -5.000001
v 0.000000 -4.999999 -5.000001
v 0.000000 -4.999999 -4.500001
v -5.000000 -4.500001 4.499999
v -5.000000 -4.500000 -0.000001
v -5.000000 -5.000000 -0.000001
v -5.000000 -5.000001 4.499999
v -5.000000 4.500001 -4.499999
v -5.000000 0.000001 -4.500000
v -5.000000 4.500000 0.000001
v -5.000000 4.499999 5.000001
v -5.000000 4.499999 4.500001
v -5.000000 -0.000001 4.500000
v -5.000000 -0.000001 5.000000
v -5.000000 4.999999 5.000001
v -5.000000 -4.500001 4.999999
v -5.000000 -5.000001 4.999999
v -4.500000 -5.000000 -0.000001
v -4.500000 -5.000001 4.999999
v -4.500000 -5.000001 4.499999
v 0.000000 -5.000001 4.499999
v 0.000000 -5.000001 4.999999
v 4.500000 -5.000001 4.999999
v 5.000000 -5.000001 4.999999
v 5.000000 -4.500000 -0.000001
v 5.000000 -4.500001 4.499999
v 5.000000 -0.000001 4.500000
v 4.500000 5.000000 0.000001
v 4.500000 4.999999 4.500001
v 0.000000 4.999999 4.500001
v 0.000000 -4.500001 4.999999
v -4.500000 -4.500001 4.999999
v -4.500000 -0.000001 5.000000
v 0.000000 -4.499999 -5.000001
v 4.500000 -4.499999 -5.000001
v 4.500000 0.000001 -5.000000
vt 0.562500 0.187500
vt 0.625000 0.187500
vt 0.625000 0.250000
vt 0.562500 0.250000
vt 0.562500 0.437500
vt 0.625000 0.437500
vt 0.625000 0.500000
vt 0.562500 0.500000
vt 0.562500 0.687500
vt 0.625000 0.687500
vt 0.625000 0.750000
vt 0.562500 0.750000
vt 0.562500 0.937500
vt 0.625000 0.937500
vt 0.625000 1.000000
vt 0.562500 1.000000
vt 0.312500 0.687500
vt 0.375000 0.687500
vt 0.375000 0.750000
vt 0.312500 0.750000
vt 0.812500 0.687500
vt 0.875000 0.687500
vt 0.875000 0.750000
vt 0.812500 0.750000
vt 0.687500 0.687500
vt 0.750000 0.687500
vt 0.750000 0.750000
vt 0.687500 0.750000
vt 0.812500 0.562500
vt 0.875000 0.562500
vt 0.875000 0.625000
vt 0.812500 0.625000
vt 0.187500 0.687500
vt 0.250000 0.687500
vt 0.250000 0.750000
vt 0.187500 0.750000
vt 0.312500 0.562500
vt 0.375000 0.562500
vt 0.375000 0.625000
vt 0.312500 0.625000
vt 0.437500 0.937500
vt 0.500000 0.937500
vt 0.500000 1.000000
vt 0.437500 1.000000
vt 0.562500 0.812500
vt 0.625000 0.812500
vt 0.625000 0.875000
vt 0.562500 0.875000
vt 0.437500 0.687500
vt 0.500000 0.687500
vt 0.500000 0.750000
vt 0.437500 0.750000
vt 0.562500 0.562500
vt 0.625000 0.562500
vt 0.625000 0.625000
vt 0.562500 0.625000
vt 0.437500 0.437500
vt 0.500000 0.437500
vt 0.500000 0.500000
vt 0.437500 0.500000
vt 0.562500 0.312500
vt 0.625000 0.312500
vt 0.625000 0.375000
vt 0.562500 0.375000
vt 0.437500 0.187500
vt 0.500000 0.187500
vt 0.500000 0.250000
vt 0.437500 0.250000
vt 0.562500 0.062500
vt 0.625000 0.062500
vt 0.625000 0.125000
vt 0.562500 0.125000
vt 0.500000 0.000000
vt 0.562500 0.000000
vt 0.500000 0.062500
vt 0.625000 0.000000
vt 0.375000 0.062500
vt 0.437500 0.062500
vt 0.437500 0.125000
vt 0.375000 0.125000
vt 0.375000 0.000000
vt 0.437500 0.000000
vt 0.375000 0.187500
vt 0.375000 0.250000
vt 0.500000 0.312500
vt 0.375000 0.312500
vt 0.437500 0.312500
vt 0.437500 0.375000
vt 0.375000 0.375000
vt 0.375000 0.437500
vt 0.375000 0.500000
vt 0.500000 0.562500
vt 0.437500 0.562500
vt 0.437500 0.625000
vt 0.500000 0.812500
vt 0.375000 0.812500
vt 0.437500 0.812500
vt 0.437500 0.875000
vt 0.375000 0.875000
vt 0.375000 0.937500
vt 0.375000 1.000000
vt 0.250000 0.500000
vt 0.312500 0.500000
vt 0.250000 0.562500
vt 0.125000 0.562500
vt 0.187500 0.562500
vt 0.187500 0.625000
vt 0.125000 0.625000
vt 0.125000 0.500000
vt 0.187500 0.500000
vt 0.125000 0.687500
vt 0.125000 0.750000
vt 0.750000 0.500000
vt 0.812500 0.500000
vt 0.750000 0.562500
vt 0.875000 0.500000
vt 0.687500 0.562500
vt 0.687500 0.625000
vt 0.687500 0.500000
vn -1.0000 0.0000 0.0000
vn 0.0000 -1.0000 0.0000
vn 1.0000 0.0000 0.0000
vn 0.0000 1.0000 0.0000
vn 0.0000 0.0000 1.0000
vn 0.0000 0.0000 -1.0000
usemtl Default_OBJ
s off
f 114/180/71 115/181/71 116/182/71 117/183/71
f 118/184/72 119/185/72 120/186/72 121/187/72
f 122/188/73 123/189/73 124/190/73 125/191/73
f 126/192/74 127/193/74 128/194/74 129/195/74
f 130/196/75 131/197/75 132/198/75 133/199/75
f 134/200/76 135/201/76 128/202/76 127/203/76
f 136/204/76 137/205/76 138/206/76 139/207/76
f 140/208/76 115/209/76 141/210/76 142/211/76
f 143/212/75 144/213/75 145/214/75 146/215/75
f 147/216/75 148/217/75 149/218/75 150/219/75
f 151/220/74 152/221/74 153/222/74 154/223/74
f 155/224/74 139/225/74 138/226/74 156/227/74
f 157/228/73 158/229/73 159/230/73 160/231/73
f 161/232/73 162/233/73 163/234/73 164/235/73
f 165/236/72 166/237/72 167/238/72 168/239/72
f 169/240/72 170/241/72 171/242/72 172/243/72
f 173/244/71 174/245/71 175/246/71 176/247/71
f 177/248/71 135/249/71 141/250/71 178/251/71
f 153/252/71 129/253/71 177/248/71 179/254/71
f 129/253/71 128/255/71 135/249/71 177/248/71
f 180/256/71 181/257/71 182/258/71 183/259/71
f 184/260/71 154/261/71 181/257/71 180/256/71
f 154/261/71 153/252/71 179/254/71 181/257/71
f 185/262/71 173/244/71 176/247/71 186/263/71
f 183/259/71 182/258/71 173/244/71 185/262/71
f 175/246/72 117/183/72 169/240/72 187/264/72
f 117/183/72 116/182/72 170/241/72 169/240/72
f 188/265/72 189/266/72 190/267/72 191/268/72
f 186/263/72 176/247/72 189/266/72 188/265/72
f 176/247/72 175/246/72 187/264/72 189/266/72
f 192/269/72 165/236/72 168/239/72 193/270/72
f 191/268/72 190/267/72 165/236/72 192/269/72
f 167/238/73 121/187/73 161/232/73 194/271/73
f 121/187/73 120/186/73 162/233/73 161/232/73
f 148/217/73 195/272/73 196/273/73 149/218/73
f 193/270/73 168/239/73 195/272/73 148/217/73
f 168/239/73 167/238/73 194/271/73 195/272/73
f 131/197/73 157/228/73 160/231/73 132/198/73
f 149/218/73 196/273/73 157/228/73 131/197/73
f 159/230/74 125/191/74 155/224/74 197/274/74
f 125/191/74 124/190/74 139/225/74 155/224/74
f 133/275/74 198/276/74 199/277/74 145/278/74
f 132/198/74 160/231/74 198/276/74 133/275/74
f 160/231/74 159/230/74 197/274/74 198/276/74
f 146/279/74 151/220/74 154/223/74 184/280/74
f 145/278/74 199/277/74 151/220/74 146/279/74
f 191/281/75 192/282/75 147/216/75 200/283/75
f 192/282/75 193/270/75 148/217/75 147/216/75
f 185/284/75 201/285/75 202/286/75 183/287/75
f 186/288/75 188/289/75 201/285/75 185/284/75
f 188/289/75 191/281/75 200/283/75 201/285/75
f 180/290/75 143/212/75 146/215/75 184/291/75
f 183/287/75 202/286/75 143/212/75 180/290/75
f 171/292/76 170/293/76 140/208/76 203/294/76
f 170/293/76 116/295/76 115/209/76 140/208/76
f 162/233/76 204/296/76 205/297/76 163/234/76
f 120/186/76 119/298/76 204/296/76 162/233/76
f 119/298/76 171/292/76 203/294/76 204/296/76
f 123/189/76 136/204/76 139/207/76 124/190/76
f 163/234/76 205/297/76 136/204/76 123/189/76
f 137/205/76 134/200/76 127/203/76 138/206/76
f 142/211/76 141/210/76 135/201/76 134/200/76
f 144/213/75 130/196/75 133/199/75 145/214/75
f 150/219/75 149/218/75 131/197/75 130/196/75
f 152/221/74 126/192/74 129/195/74 153/222/74
f 156/227/74 138/226/74 127/193/74 126/192/74
f 158/229/73 122/188/73 125/191/73 159/230/73
f 164/235/73 163/234/73 123/189/73 122/188/73
f 166/237/72 118/184/72 121/187/72 167/238/72
f 172/243/72 171/242/72 119/185/72 118/184/72
f 174/245/71 114/180/71 117/183/71 175/246/71
f 178/251/71 141/250/71 115/181/71 114/180/71
